Coordinates
version=1
nRows=17
nColumns=33
inDegrees=yes

Units are S.I. units (second, meters, Newtons, ...)
Angles are in degrees.

endheader
time	ground_thorax_rot_x	ground_thorax_rot_y	ground_thorax_rot_z	ground_thorax_tx	ground_thorax_ty	ground_thorax_tz	clav_prot_r	clav_elev_r	scapula_abduction_r	scapula_elevation_r	scapula_upward_rot_r	scapula_winging_r	shoulder_elv_r	plane_of_elev_r	axial_rot_r	elbow_flexion_r	pro_sup_r	wrist_flex_r	wrist_dev_r	clav_prot_l	clav_elev_l	scapula_abduction_l	scapula_elevation_l	scapula_upward_rot_l	scapula_winging_l	shoulder_elv_l	plane_of_elev_l	axial_rot_l	elbow_flexion_l	pro_sup_l	wrist_flex_l	wrist_dev_l
      6.94000000	    -39.68032131	     -8.45798759	      9.59930632	    -89.31216231	    782.66185991	     10.08038725	      7.62205727	    -45.00000000	     45.00000000	    -45.00000000	    -18.69574827	  -2609.81822832	  -2093.35217656	     31.47093738	     44.50273847	   2169.27100717	     24.53649498	     16.91035792	     14.63842473	     16.08900886	     41.65401382	    -45.00000000	    -41.01254373	    -23.32066580	     79.61754431	  -2814.91647820	     29.24377348	     11.38860656	    360.78675067	     41.66076859	     12.08381274	    -19.28540081
      6.95000000	    -39.73973302	     -8.56603026	      9.57284400	    -89.05244483	    782.80530255	      9.95078072	      7.49269411	    -45.00000000	     45.00000000	    -45.00000000	    -18.80790321	  -2609.65747732	  -2093.29561723	     31.38493084	     44.55935392	   2169.34943640	     24.74083341	     16.86811169	     14.47730260	     16.51379340	     41.70778667	    -45.00000000	    -41.04798809	    -23.41808959	     79.55610182	  -2814.92447409	     29.29804793	     11.60014679	    360.81296275	     41.77969789	     12.21715744	    -19.22572929
      6.96000000	    -39.90304278	     -8.44453619	      9.30645097	    -89.08355225	    783.02504745	      9.82233860	      7.56519059	    -45.00000000	     45.00000000	    -45.00000000	    -18.66308271	  -2609.73334055	  -2093.46861607	     31.54902297	     44.59072618	   2169.30929354	     24.90146908	     16.95176860	     14.47179653	     16.32696700	     41.80884204	    -45.00000000	    -41.19984711	    -23.38830837	     79.43247238	  -2814.81675336	     29.40416330	     11.76442299	    360.86597734	     41.87920566	     12.05188515	    -19.27310323
      6.97000000	    -39.89750255	     -8.47414599	      9.20163910	    -89.39895044	    783.30316100	      9.69566937	      7.38997240	    -45.00000000	     45.00000000	    -45.00000000	    -18.46994667	  -2609.64690021	  -2093.25079546	     31.32879227	     44.58145709	   2169.45777845	     25.02318887	     16.98092083	     14.33545501	     16.42852433	     41.89469228	    -45.00000000	    -41.14898547	    -23.23992161	     79.56486604	  -2814.86864604	     29.39392910	     11.95028536	    360.88505124	     42.01497675	     12.09690643	    -19.31452543
      6.98000000	    -39.98576676	     -8.33396992	      8.89431443	    -89.99067655	    783.62002776	      9.57477244	      7.43840979	    -45.00000000	     45.00000000	    -45.00000000	    -18.29674704	  -2609.88346084	  -2093.32026068	     31.65851950	     44.61921714	   2169.41765049	     25.14036359	     17.03990964	     14.27544516	     16.26139345	     41.86019310	    -45.00000000	    -41.22542864	    -23.09434731	     79.55413511	  -2814.79215163	     29.45728445	     12.02448162	    360.97377461	     42.11792945	     11.98896185	    -19.41761636
      6.99000000	    -39.93786891	     -8.41276793	      8.88494394	    -90.84699641	    783.96581763	      9.45898053	      7.25191584	    -45.00000000	     45.00000000	    -45.00000000	    -18.08081682	  -2609.82332686	  -2093.01373126	     31.35408485	     44.61528904	   2169.61412753	     25.19468504	     17.11730974	     14.13684335	     16.21951217	     41.85400315	    -45.00000000	    -41.04006256	    -22.85124070	     79.82761963	  -2814.80465561	     29.45404868	     12.05121065	    361.04315398	     42.16992849	     11.98497820	    -19.54413132
      7.00000000	    -40.10852403	     -8.43503021	      8.65334402	    -91.95399960	    784.33513091	      9.35031098	      7.29317106	    -45.00000000	     45.00000000	    -45.00000000	    -18.04008571	  -2610.03280912	  -2093.20756420	     31.55891102	     44.64193689	   2169.66468975	     25.24144421	     17.17202597	     14.05875410	     16.01038761	     41.63542014	    -45.00000000	    -41.27424599	    -22.70893403	     79.90178530	  -2814.77861532	     29.35843344	     11.90805548	    361.10779873	     42.16833629	     11.91102409	    -19.64728770
      7.01000000	    -40.07183366	     -8.28510114	      8.49580495	    -93.31109516	    784.73719678	      9.24621608	      7.17992893	    -45.00000000	     45.00000000	    -45.00000000	    -17.87451129	  -2610.20630778	  -2092.87353067	     31.58042974	     44.58430057	   2169.75570436	     25.19919985	     17.24179295	     13.89191749	     16.01881833	     41.81895822	    -45.00000000	    -41.18220763	    -22.68860861	     80.08398639	  -2814.73044696	     29.53606630	     11.68390142	    361.22217906	     42.02863167	     11.88095707	    -19.84128078
      7.02000000	    -40.35309982	     -8.63753602	      8.68662004	    -94.89964544	    785.18131273	      9.14591867	      7.39517220	    -45.00000000	     45.00000000	    -45.00000000	    -18.46488270	  -2610.27385467	  -2092.97707380	     31.47490126	     44.32252806	   2169.94965238	     25.05556311	     17.27399109	     13.78415276	     16.26384120	     42.54143040	    -45.00000000	    -41.93674422	    -23.71590838	     79.85742821	  -2814.65081189	     29.42851198	     11.41081612	    361.78153454	     41.54706177	     11.72871535	    -19.86629914
      7.03000000	    -40.43632403	     -8.69785031	      8.64474807	    -96.71515937	    785.68896920	      9.04515368	      7.39732629	    -45.00000000	     45.00000000	    -45.00000000	    -18.60591240	  -2610.46978670	  -2092.80580774	     31.52623005	     43.99581816	   2170.03832014	     24.85402124	     17.33322945	     13.69988315	     16.22063111	     42.58083819	    -45.00000000	    -42.12111936	    -23.84413005	     80.00922524	  -2814.62181829	     29.38480112	     11.26124289	    362.01719865	     40.97180436	     11.69069665	    -19.98188876
      7.04000000	    -40.55655102	     -8.71817217	      8.57068466	    -98.75753936	    786.27932180	      8.94400050	      7.38512706	    -45.00000000	     45.00000000	    -45.00000000	    -18.70872373	  -2610.66339462	  -2092.65327051	     31.53166274	     43.63399310	   2170.13815563	     24.61229213	     17.39370350	     13.61367992	     16.15450948	     42.79017524	    -45.00000000	    -42.37723375	    -23.97548073	     80.15060333	  -2814.58251440	     29.34780447	     10.98675222	    362.30025403	     40.36867839	     11.63164023	    -20.09599602
      7.05000000	    -40.67481568	     -8.73228368	      8.57895901	   -101.02541975	    786.97048788	      8.84364113	      7.40467132	    -45.00000000	     45.00000000	    -45.00000000	    -18.91564690	  -2610.93720255	  -2092.50130594	     31.52276434	     43.18977982	   2170.24877463	     24.32049526	     17.45323499	     13.53818119	     16.18881775	     43.05325853	    -45.00000000	    -42.62552649	    -24.27873845	     80.27326827	  -2814.46351153	     29.34401592	     10.70575636	    362.63638078	     39.68575496	     11.54861616	    -20.19639639
      7.06000000	    -40.74586951	     -9.12527116	      8.94564438	   -103.52589798	    787.78091367	      8.74492826	      7.71316458	    -45.00000000	     45.00000000	    -45.00000000	    -19.72521352	  -2611.39972477	  -2092.40389155	     31.79442028	     42.40195534	   2170.22664255	     23.82768522	     17.44488550	     13.41482025	     17.18669864	     42.96370832	    -45.00000000	    -43.08157183	    -25.60435525	     80.29862089	  -2814.27545663	     29.54962455	     10.55934983	    362.87285777	     38.60207888	     11.42029674	    -20.18852480
      7.07000000	    -40.89419633	     -9.10821625	      8.79351052	   -106.25603334	    788.72712483	      8.64873362	      7.65879736	    -45.00000000	     45.00000000	    -45.00000000	    -19.76004999	  -2611.59650305	  -2092.18425840	     31.76669543	     41.97141538	   2170.38689551	     23.44301628	     17.51584665	     13.37435653	     16.87887135	     43.28479160	    -45.00000000	    -43.37213365	    -25.63948904	     80.47536733	  -2814.16658071	     29.45643218	     10.32576879	    363.09227020	     37.88132091	     11.37695956	    -20.26422366
      7.08000000	    -40.98994076	     -9.51437862	      9.24435989	   -109.21761595	    789.81614308	      8.55569457	      7.90344111	    -45.00000000	     45.00000000	    -45.00000000	    -20.68271050	  -2611.97928511	  -2092.00092362	     31.87098936	     41.28532671	   2170.36835024	     22.86127648	     17.52553958	     13.33624432	     17.70886184	     43.16308883	    -45.00000000	    -43.86317896	    -26.93214479	     80.47799152	  -2813.96845954	     29.51242964	     10.38398123	    363.55326187	     36.80742745	     11.19864325	    -20.29258686
      7.09000000	    -41.11725804	     -9.73621279	      9.43200777	   -112.40714899	    791.05492022	      8.46577976	      7.97881176	    -45.00000000	     45.00000000	    -45.00000000	    -21.23372314	  -2612.28467328	  -2091.77538994	     31.88564625	     40.75336964	   2170.47615415	     22.27307645	     17.57241200	     13.33357228	     17.83650224	     43.27901656	    -45.00000000	    -44.28736762	    -27.73448136	     80.52353447	  -2813.71197689	     29.50189028	     10.52775474	    363.82047140	     35.90623121	     11.13970780	    -20.35609922
      7.10000000	    -41.28937696	     -9.32838722	      8.89392271	   -115.81611472	    792.44272098	      8.37872247	      7.72943132	    -45.00000000	     45.00000000	    -45.00000000	    -20.52769259	  -2612.54754037	  -2091.54058849	     31.79414181	     40.73632065	   2170.58029652	     21.95698116	     17.62948055	     13.18210547	     16.62081291	     43.84306461	    -45.00000000	    -44.43480110	    -26.68631123	     81.08435177	  -2813.88951104	     29.33007974	      9.86090938	    364.12561270	     35.62291988	     11.19654967	    -20.57274528
